<svg xmlns="http://www.w3.org/2000/svg" version="1.1" viewBox="0 0 256 256"><g style="fill:#0AF;"><path d="M109.1,213.4H9.3V43.2h36.3v140.5h63.6V213.4z"/><path d="M247.4,207.3c-12.4,6.1-28.5,9.1-48.4,9.1c-25.6,0-46-7.7-61-23c-15.1-15.3-22.6-35.8-22.6-61.4c0-26.9,8.4-48.9,25.2-66c16.8-17.1,38.5-25.7,65.1-25.7c16.6,0,30.5,2.2,41.7,6.5v35c-11.5-6.7-24.5-10.1-39.1-10.1c-16.6,0-29.9,5.3-39.9,15.9c-10,10.6-14.9,24.5-14.9,41.6c0,16.7,4.7,30.1,14.2,40.3c9.4,10.2,22.2,15.3,38.3,15.3c15.2,0,29-3.7,41.4-11V207.3z"/></g></svg>